<?xml version="1.0" encoding="UTF-8"?>
<svg width="32px" height="32px" viewBox="0 0 32 32" version="1.1" xmlns="http://www.w3.org/2000/svg" xmlns:xlink="http://www.w3.org/1999/xlink">
  <title>Dr. Mattheus Motta - Favicon</title>
  <g stroke="none" stroke-width="1" fill="none" fill-rule="evenodd">
    <circle fill="#3B82F6" cx="16" cy="16" r="16"></circle>
    <path d="M24,13 C24,11.3 22.7,10 21,10 L19,10 C17.3,10 16,11.3 16,13 L16,15 L18,15 L18,13 C18,12.4 18.4,12 19,12 L21,12 C21.6,12 22,12.4 22,13 C22,13.6 21.6,14 21,14 L20,14 C18.3,14 17,15.3 17,17 L17,18 C17,18.7 17.4,19.4 18,19.7 L18,22 C18,22.6 18.4,23 19,23 C19.6,23 20,22.6 20,22 L20,19.7 C20.6,19.4 21,18.7 21,18 L21,17 C21,16.4 21.4,16 22,16 C23.7,16 25,14.7 25,13 C25,13 24,13 24,13 Z M14,18 C14,16.9 13.1,16 12,16 C10.9,16 10,16.9 10,18 C10,19.1 10.9,20 12,20 C13.1,20 14,19.1 14,18 Z M12,14 C13.1,14 14,13.1 14,12 C14,10.9 13.1,10 12,10 C10.9,10 10,10.9 10,12 C10,13.1 10.9,14 12,14 Z M11,14.5 L11,17.5 C11,17.8 11.2,18 11.5,18 L12.5,18 C12.8,18 13,17.8 13,17.5 L13,14.5 C13,14.2 12.8,14 12.5,14 L11.5,14 C11.2,14 11,14.2 11,14.5 Z" fill="#FFFFFF" fill-rule="nonzero"></path>
  </g>
</svg> 